<svg width="28" height="28" viewBox="0 0 28 28" fill="none" xmlns="http://www.w3.org/2000/svg">
<path d="M24.7769 8.43722C24.6724 8.28629 24.533 8.16293 24.3704 8.0777C24.2079 7.99247 24.0271 7.94792 23.8436 7.94786H8.32595L7.01569 4.80278C6.84389 4.3886 6.55297 4.03477 6.17983 3.78614C5.80668 3.53752 5.36811 3.40529 4.91972 3.40622H2.27081V5.67704H4.91972L10.3061 18.6037C10.3924 18.8105 10.5379 18.9872 10.7244 19.1114C10.9109 19.2357 11.13 19.302 11.3541 19.3019H20.4373C20.9108 19.3019 21.3343 19.0079 21.5012 18.5662L24.9075 9.48293C24.9718 9.31105 24.9936 9.12613 24.9708 8.94401C24.9481 8.76189 24.8815 8.58799 24.7769 8.43722Z" fill="black"/>
<path d="M11.9218 23.8436C12.8624 23.8436 13.6249 23.0811 13.6249 22.1405C13.6249 21.1999 12.8624 20.4373 11.9218 20.4373C10.9812 20.4373 10.2187 21.1999 10.2187 22.1405C10.2187 23.0811 10.9812 23.8436 11.9218 23.8436Z" fill="black"/>
<path d="M19.8697 23.8436C20.8103 23.8436 21.5728 23.0811 21.5728 22.1405C21.5728 21.1999 20.8103 20.4373 19.8697 20.4373C18.9291 20.4373 18.1666 21.1999 18.1666 22.1405C18.1666 23.0811 18.9291 23.8436 19.8697 23.8436Z" fill="black"/>
</svg>
